#format: frame checksums
#version: 2
#hash: MD5
#extradata 0,                              16, e46c7123194c0ebf19a23e5cefebaa63
#tb 0: 1/25
#media_type 0: video
#codec_id 0: utvideo
#dimensions 0: 352x288
#sar 0: 0/1
#stream#, dts,        pts, duration,     size, hash
0,          0,          0,        1,   144080, 678b4a3ece35971c3e0f199fcab2b4a1
0,          1,          1,        1,   144120, d0c326ed062b569a04ea84359e43cfde
0,          2,          2,        1,   144956, 32e2d8a1dc22b1d837e8f70509767d7d
0,          3,          3,        1,   143324, 6fff1691c498ccf1cf848147dcc1b62c
0,          4,          4,        1,   142464, df4caa8316ec987fe3cba4a76c0976f0
0,          5,          5,        1,   144068, 2cc92f54850a45d76b8a959d62c28408
0,          6,          6,        1,   143840, c80e0e9945a92869ca639b59118f24f3
0,          7,          7,        1,   143536, 682a3148911f94daa333e12a505d689f
0,          8,          8,        1,   143736, af692d8d5fe2e23f9e16c7164ceaaeb5
0,          9,          9,        1,   144076, 13412473483a727e8cced00d0d0fbb78
0,         10,         10,        1,   144012, 4f1402c7d25ee222329cc007aa4df345
0,         11,         11,        1,   143520, cc4b83f407d031cc4a166c3210583599
0,         12,         12,        1,   141640, e4a4d1b88c7aabfcc40c51ff80305f70
0,         13,         13,        1,   143096, b3de93652c190bc88dd6e17a27db4ebf
0,         14,         14,        1,   144704, 48ce5d6a84b965f38f5e4a46e8bfd0c3
0,         15,         15,        1,   144520, 936970ae76c23e6a7880f2c875c1fb66
0,         16,         16,        1,   143704, 32d9a3e4118e1134f3c0ead846805aaf
0,         17,         17,        1,   143648, 4214224b843fab53ae45921426de1892
0,         18,         18,        1,   142920, 22b1c3a09f23fa262d7ffa2fb4347f3a
0,         19,         19,        1,   142604, d24c0ba247bb38bf7bdfc348d7c6fdf1
0,         20,         20,        1,   141928, 8115cdd0fb51fa90821f93900c8cc980
0,         21,         21,        1,   142072, f6d87afe383aa9a85b89832e422859e0
0,         22,         22,        1,   142204, ced75258ae7001a8a4029423d61abf06
0,         23,         23,        1,   143420, 686a5ded45cd70af9e699e9919da9cc7
0,         24,         24,        1,   144552, 5a1e0f522e74a1284b86c5d0e185f16d
0,         25,         25,        1,   143328, f54e6787ac2f3ac0e925388b66c95b2a
0,         26,         26,        1,   142584, 652dda504ace9c4e1569319ef6cd333d
0,         27,         27,        1,   142084, 3eafb87f47844ce6d0572af051d2e25b
0,         28,         28,        1,   140196, 92b60cf33e5c430f3e92a39bb4389096
0,         29,         29,        1,   140152, 658a331d3f5ee1bb50392f3835aed56d
0,         30,         30,        1,   141484, b54db7d5978d99f7192dd2008438ab41
0,         31,         31,        1,   142360, ed84a9d2241ade4c36f95eaa1ae00b0e
0,         32,         32,        1,   142744, 7dbb99de3a4a81de5564bb577471128d
0,         33,         33,        1,   144360, bd26a71b0824a04badfffa0653f0ac00
0,         34,         34,        1,   143464, 11fe56173423180d581bc52fe044657a
0,         35,         35,        1,   142856, 9f690fa8727669ba8640032933eb8235
0,         36,         36,        1,   142108, b5c182f3f0e6d307f598dc55f51f9d51
0,         37,         37,        1,   142492, ab7b6b446b4f5f5ec2b2eb52f934523c
0,         38,         38,        1,   140532, 3fda7e5443dcf59e52f523bcf863d5d2
0,         39,         39,        1,   140288, 1426cb304a219876586ba5c161809fac
0,         40,         40,        1,   140540, 3a69f372875e2cd6ec5b49498e1f1a05
0,         41,         41,        1,   141868, aca8f0bd1b29c4142b80e5e3e59aeb75
0,         42,         42,        1,   141892, 91bf3847703041b4fbe87602e78fb577
0,         43,         43,        1,   142080, f1b28c53e1068a6305ebb6d4862aebf1
0,         44,         44,        1,   141220, 188ffeef2973b490364e8cf01fc2d8e6
0,         45,         45,        1,   139908, 1eaa1194f719aa6da4c7ab4dddcee4ce
0,         46,         46,        1,   138868, 2243b5d473d6df2ea283752fe799c95b
0,         47,         47,        1,   139276, d74f2cbfac00177d848fb1b1e223e654
0,         48,         48,        1,   139312, 27054be184a1028a86c5e3406418a92c
0,         49,         49,        1,   138132, feb653f902c92cfd1954b61b9d1149f2
